%TF.GenerationSoftware,KiCad,Pcbnew,7.0.9*%
%TF.CreationDate,2024-02-21T22:43:16+01:00*%
%TF.ProjectId,line_injector,6c696e65-5f69-46e6-9a65-63746f722e6b,rev?*%
%TF.SameCoordinates,Original*%
%TF.FileFunction,Legend,Top*%
%TF.FilePolarity,Positive*%
%FSLAX46Y46*%
G04 Gerber Fmt 4.6, Leading zero omitted, Abs format (unit mm)*
G04 Created by KiCad (PCBNEW 7.0.9) date 2024-02-21 22:43:16*
%MOMM*%
%LPD*%
G01*
G04 APERTURE LIST*
%ADD10C,0.500000*%
%ADD11C,0.700000*%
%ADD12C,0.120000*%
%ADD13C,0.100000*%
G04 APERTURE END LIST*
D10*
X130095237Y-140009238D02*
X130285714Y-140009238D01*
X130285714Y-140009238D02*
X130476190Y-140104476D01*
X130476190Y-140104476D02*
X130571428Y-140199714D01*
X130571428Y-140199714D02*
X130666666Y-140390190D01*
X130666666Y-140390190D02*
X130761904Y-140771142D01*
X130761904Y-140771142D02*
X130761904Y-141247333D01*
X130761904Y-141247333D02*
X130666666Y-141628285D01*
X130666666Y-141628285D02*
X130571428Y-141818761D01*
X130571428Y-141818761D02*
X130476190Y-141914000D01*
X130476190Y-141914000D02*
X130285714Y-142009238D01*
X130285714Y-142009238D02*
X130095237Y-142009238D01*
X130095237Y-142009238D02*
X129904761Y-141914000D01*
X129904761Y-141914000D02*
X129809523Y-141818761D01*
X129809523Y-141818761D02*
X129714285Y-141628285D01*
X129714285Y-141628285D02*
X129619047Y-141247333D01*
X129619047Y-141247333D02*
X129619047Y-140771142D01*
X129619047Y-140771142D02*
X129714285Y-140390190D01*
X129714285Y-140390190D02*
X129809523Y-140199714D01*
X129809523Y-140199714D02*
X129904761Y-140104476D01*
X129904761Y-140104476D02*
X130095237Y-140009238D01*
X131428571Y-140009238D02*
X132666666Y-140009238D01*
X132666666Y-140009238D02*
X131999999Y-140771142D01*
X131999999Y-140771142D02*
X132285714Y-140771142D01*
X132285714Y-140771142D02*
X132476190Y-140866380D01*
X132476190Y-140866380D02*
X132571428Y-140961619D01*
X132571428Y-140961619D02*
X132666666Y-141152095D01*
X132666666Y-141152095D02*
X132666666Y-141628285D01*
X132666666Y-141628285D02*
X132571428Y-141818761D01*
X132571428Y-141818761D02*
X132476190Y-141914000D01*
X132476190Y-141914000D02*
X132285714Y-142009238D01*
X132285714Y-142009238D02*
X131714285Y-142009238D01*
X131714285Y-142009238D02*
X131523809Y-141914000D01*
X131523809Y-141914000D02*
X131428571Y-141818761D01*
X134952380Y-139914000D02*
X133238095Y-142485428D01*
X135523809Y-140199714D02*
X135619047Y-140104476D01*
X135619047Y-140104476D02*
X135809523Y-140009238D01*
X135809523Y-140009238D02*
X136285714Y-140009238D01*
X136285714Y-140009238D02*
X136476190Y-140104476D01*
X136476190Y-140104476D02*
X136571428Y-140199714D01*
X136571428Y-140199714D02*
X136666666Y-140390190D01*
X136666666Y-140390190D02*
X136666666Y-140580666D01*
X136666666Y-140580666D02*
X136571428Y-140866380D01*
X136571428Y-140866380D02*
X135428571Y-142009238D01*
X135428571Y-142009238D02*
X136666666Y-142009238D01*
X137904761Y-140009238D02*
X138095238Y-140009238D01*
X138095238Y-140009238D02*
X138285714Y-140104476D01*
X138285714Y-140104476D02*
X138380952Y-140199714D01*
X138380952Y-140199714D02*
X138476190Y-140390190D01*
X138476190Y-140390190D02*
X138571428Y-140771142D01*
X138571428Y-140771142D02*
X138571428Y-141247333D01*
X138571428Y-141247333D02*
X138476190Y-141628285D01*
X138476190Y-141628285D02*
X138380952Y-141818761D01*
X138380952Y-141818761D02*
X138285714Y-141914000D01*
X138285714Y-141914000D02*
X138095238Y-142009238D01*
X138095238Y-142009238D02*
X137904761Y-142009238D01*
X137904761Y-142009238D02*
X137714285Y-141914000D01*
X137714285Y-141914000D02*
X137619047Y-141818761D01*
X137619047Y-141818761D02*
X137523809Y-141628285D01*
X137523809Y-141628285D02*
X137428571Y-141247333D01*
X137428571Y-141247333D02*
X137428571Y-140771142D01*
X137428571Y-140771142D02*
X137523809Y-140390190D01*
X137523809Y-140390190D02*
X137619047Y-140199714D01*
X137619047Y-140199714D02*
X137714285Y-140104476D01*
X137714285Y-140104476D02*
X137904761Y-140009238D01*
X139333333Y-140199714D02*
X139428571Y-140104476D01*
X139428571Y-140104476D02*
X139619047Y-140009238D01*
X139619047Y-140009238D02*
X140095238Y-140009238D01*
X140095238Y-140009238D02*
X140285714Y-140104476D01*
X140285714Y-140104476D02*
X140380952Y-140199714D01*
X140380952Y-140199714D02*
X140476190Y-140390190D01*
X140476190Y-140390190D02*
X140476190Y-140580666D01*
X140476190Y-140580666D02*
X140380952Y-140866380D01*
X140380952Y-140866380D02*
X139238095Y-142009238D01*
X139238095Y-142009238D02*
X140476190Y-142009238D01*
X142190476Y-140675904D02*
X142190476Y-142009238D01*
X141714285Y-139914000D02*
X141238095Y-141342571D01*
X141238095Y-141342571D02*
X142476190Y-141342571D01*
X129666666Y-145229238D02*
X129476190Y-145134000D01*
X129476190Y-145134000D02*
X129380952Y-144943523D01*
X129380952Y-144943523D02*
X129380952Y-143229238D01*
X130428571Y-145229238D02*
X130428571Y-143895904D01*
X130428571Y-143229238D02*
X130333333Y-143324476D01*
X130333333Y-143324476D02*
X130428571Y-143419714D01*
X130428571Y-143419714D02*
X130523809Y-143324476D01*
X130523809Y-143324476D02*
X130428571Y-143229238D01*
X130428571Y-143229238D02*
X130428571Y-143419714D01*
X131380952Y-145229238D02*
X131380952Y-143895904D01*
X131380952Y-144086380D02*
X131476190Y-143991142D01*
X131476190Y-143991142D02*
X131666666Y-143895904D01*
X131666666Y-143895904D02*
X131952381Y-143895904D01*
X131952381Y-143895904D02*
X132142857Y-143991142D01*
X132142857Y-143991142D02*
X132238095Y-144181619D01*
X132238095Y-144181619D02*
X132238095Y-145229238D01*
X132238095Y-144181619D02*
X132333333Y-143991142D01*
X132333333Y-143991142D02*
X132523809Y-143895904D01*
X132523809Y-143895904D02*
X132809523Y-143895904D01*
X132809523Y-143895904D02*
X133000000Y-143991142D01*
X133000000Y-143991142D02*
X133095238Y-144181619D01*
X133095238Y-144181619D02*
X133095238Y-145229238D01*
X134047619Y-143895904D02*
X134047619Y-145895904D01*
X134047619Y-143991142D02*
X134238095Y-143895904D01*
X134238095Y-143895904D02*
X134619048Y-143895904D01*
X134619048Y-143895904D02*
X134809524Y-143991142D01*
X134809524Y-143991142D02*
X134904762Y-144086380D01*
X134904762Y-144086380D02*
X135000000Y-144276857D01*
X135000000Y-144276857D02*
X135000000Y-144848285D01*
X135000000Y-144848285D02*
X134904762Y-145038761D01*
X134904762Y-145038761D02*
X134809524Y-145134000D01*
X134809524Y-145134000D02*
X134619048Y-145229238D01*
X134619048Y-145229238D02*
X134238095Y-145229238D01*
X134238095Y-145229238D02*
X134047619Y-145134000D01*
X135857143Y-145229238D02*
X135857143Y-143229238D01*
X136047619Y-144467333D02*
X136619048Y-145229238D01*
X136619048Y-143895904D02*
X135857143Y-144657809D01*
X137476191Y-145229238D02*
X137476191Y-143895904D01*
X137476191Y-143229238D02*
X137380953Y-143324476D01*
X137380953Y-143324476D02*
X137476191Y-143419714D01*
X137476191Y-143419714D02*
X137571429Y-143324476D01*
X137571429Y-143324476D02*
X137476191Y-143229238D01*
X137476191Y-143229238D02*
X137476191Y-143419714D01*
X138428572Y-143895904D02*
X138428572Y-145229238D01*
X138428572Y-144086380D02*
X138523810Y-143991142D01*
X138523810Y-143991142D02*
X138714286Y-143895904D01*
X138714286Y-143895904D02*
X139000001Y-143895904D01*
X139000001Y-143895904D02*
X139190477Y-143991142D01*
X139190477Y-143991142D02*
X139285715Y-144181619D01*
X139285715Y-144181619D02*
X139285715Y-145229238D01*
X140238096Y-145038761D02*
X140333334Y-145134000D01*
X140333334Y-145134000D02*
X140238096Y-145229238D01*
X140238096Y-145229238D02*
X140142858Y-145134000D01*
X140142858Y-145134000D02*
X140238096Y-145038761D01*
X140238096Y-145038761D02*
X140238096Y-145229238D01*
X140904763Y-143895904D02*
X141666667Y-143895904D01*
X141190477Y-145229238D02*
X141190477Y-143514952D01*
X141190477Y-143514952D02*
X141285715Y-143324476D01*
X141285715Y-143324476D02*
X141476191Y-143229238D01*
X141476191Y-143229238D02*
X141666667Y-143229238D01*
X142333334Y-145229238D02*
X142333334Y-143895904D01*
X142333334Y-144276857D02*
X142428572Y-144086380D01*
X142428572Y-144086380D02*
X142523810Y-143991142D01*
X142523810Y-143991142D02*
X142714286Y-143895904D01*
X142714286Y-143895904D02*
X142904763Y-143895904D01*
X112880952Y-141509238D02*
X111928571Y-141509238D01*
X111928571Y-141509238D02*
X111928571Y-139509238D01*
X113547619Y-141509238D02*
X113547619Y-140175904D01*
X113547619Y-139509238D02*
X113452381Y-139604476D01*
X113452381Y-139604476D02*
X113547619Y-139699714D01*
X113547619Y-139699714D02*
X113642857Y-139604476D01*
X113642857Y-139604476D02*
X113547619Y-139509238D01*
X113547619Y-139509238D02*
X113547619Y-139699714D01*
X114500000Y-140175904D02*
X114500000Y-141509238D01*
X114500000Y-140366380D02*
X114595238Y-140271142D01*
X114595238Y-140271142D02*
X114785714Y-140175904D01*
X114785714Y-140175904D02*
X115071429Y-140175904D01*
X115071429Y-140175904D02*
X115261905Y-140271142D01*
X115261905Y-140271142D02*
X115357143Y-140461619D01*
X115357143Y-140461619D02*
X115357143Y-141509238D01*
X117071429Y-141414000D02*
X116880953Y-141509238D01*
X116880953Y-141509238D02*
X116500000Y-141509238D01*
X116500000Y-141509238D02*
X116309524Y-141414000D01*
X116309524Y-141414000D02*
X116214286Y-141223523D01*
X116214286Y-141223523D02*
X116214286Y-140461619D01*
X116214286Y-140461619D02*
X116309524Y-140271142D01*
X116309524Y-140271142D02*
X116500000Y-140175904D01*
X116500000Y-140175904D02*
X116880953Y-140175904D01*
X116880953Y-140175904D02*
X117071429Y-140271142D01*
X117071429Y-140271142D02*
X117166667Y-140461619D01*
X117166667Y-140461619D02*
X117166667Y-140652095D01*
X117166667Y-140652095D02*
X116214286Y-140842571D01*
X109309523Y-144729238D02*
X109309523Y-142729238D01*
X110261904Y-143395904D02*
X110261904Y-144729238D01*
X110261904Y-143586380D02*
X110357142Y-143491142D01*
X110357142Y-143491142D02*
X110547618Y-143395904D01*
X110547618Y-143395904D02*
X110833333Y-143395904D01*
X110833333Y-143395904D02*
X111023809Y-143491142D01*
X111023809Y-143491142D02*
X111119047Y-143681619D01*
X111119047Y-143681619D02*
X111119047Y-144729238D01*
X112071428Y-143395904D02*
X112071428Y-145110190D01*
X112071428Y-145110190D02*
X111976190Y-145300666D01*
X111976190Y-145300666D02*
X111785714Y-145395904D01*
X111785714Y-145395904D02*
X111690476Y-145395904D01*
X112071428Y-142729238D02*
X111976190Y-142824476D01*
X111976190Y-142824476D02*
X112071428Y-142919714D01*
X112071428Y-142919714D02*
X112166666Y-142824476D01*
X112166666Y-142824476D02*
X112071428Y-142729238D01*
X112071428Y-142729238D02*
X112071428Y-142919714D01*
X113785714Y-144634000D02*
X113595238Y-144729238D01*
X113595238Y-144729238D02*
X113214285Y-144729238D01*
X113214285Y-144729238D02*
X113023809Y-144634000D01*
X113023809Y-144634000D02*
X112928571Y-144443523D01*
X112928571Y-144443523D02*
X112928571Y-143681619D01*
X112928571Y-143681619D02*
X113023809Y-143491142D01*
X113023809Y-143491142D02*
X113214285Y-143395904D01*
X113214285Y-143395904D02*
X113595238Y-143395904D01*
X113595238Y-143395904D02*
X113785714Y-143491142D01*
X113785714Y-143491142D02*
X113880952Y-143681619D01*
X113880952Y-143681619D02*
X113880952Y-143872095D01*
X113880952Y-143872095D02*
X112928571Y-144062571D01*
X115595238Y-144634000D02*
X115404762Y-144729238D01*
X115404762Y-144729238D02*
X115023809Y-144729238D01*
X115023809Y-144729238D02*
X114833333Y-144634000D01*
X114833333Y-144634000D02*
X114738095Y-144538761D01*
X114738095Y-144538761D02*
X114642857Y-144348285D01*
X114642857Y-144348285D02*
X114642857Y-143776857D01*
X114642857Y-143776857D02*
X114738095Y-143586380D01*
X114738095Y-143586380D02*
X114833333Y-143491142D01*
X114833333Y-143491142D02*
X115023809Y-143395904D01*
X115023809Y-143395904D02*
X115404762Y-143395904D01*
X115404762Y-143395904D02*
X115595238Y-143491142D01*
X116166667Y-143395904D02*
X116928571Y-143395904D01*
X116452381Y-142729238D02*
X116452381Y-144443523D01*
X116452381Y-144443523D02*
X116547619Y-144634000D01*
X116547619Y-144634000D02*
X116738095Y-144729238D01*
X116738095Y-144729238D02*
X116928571Y-144729238D01*
X117880952Y-144729238D02*
X117690476Y-144634000D01*
X117690476Y-144634000D02*
X117595238Y-144538761D01*
X117595238Y-144538761D02*
X117500000Y-144348285D01*
X117500000Y-144348285D02*
X117500000Y-143776857D01*
X117500000Y-143776857D02*
X117595238Y-143586380D01*
X117595238Y-143586380D02*
X117690476Y-143491142D01*
X117690476Y-143491142D02*
X117880952Y-143395904D01*
X117880952Y-143395904D02*
X118166667Y-143395904D01*
X118166667Y-143395904D02*
X118357143Y-143491142D01*
X118357143Y-143491142D02*
X118452381Y-143586380D01*
X118452381Y-143586380D02*
X118547619Y-143776857D01*
X118547619Y-143776857D02*
X118547619Y-144348285D01*
X118547619Y-144348285D02*
X118452381Y-144538761D01*
X118452381Y-144538761D02*
X118357143Y-144634000D01*
X118357143Y-144634000D02*
X118166667Y-144729238D01*
X118166667Y-144729238D02*
X117880952Y-144729238D01*
X119404762Y-144729238D02*
X119404762Y-143395904D01*
X119404762Y-143776857D02*
X119500000Y-143586380D01*
X119500000Y-143586380D02*
X119595238Y-143491142D01*
X119595238Y-143491142D02*
X119785714Y-143395904D01*
X119785714Y-143395904D02*
X119976191Y-143395904D01*
D11*
X110746240Y-102739314D02*
X110460526Y-102596457D01*
X110460526Y-102596457D02*
X110031954Y-102596457D01*
X110031954Y-102596457D02*
X109603383Y-102739314D01*
X109603383Y-102739314D02*
X109317668Y-103025028D01*
X109317668Y-103025028D02*
X109174811Y-103310742D01*
X109174811Y-103310742D02*
X109031954Y-103882171D01*
X109031954Y-103882171D02*
X109031954Y-104310742D01*
X109031954Y-104310742D02*
X109174811Y-104882171D01*
X109174811Y-104882171D02*
X109317668Y-105167885D01*
X109317668Y-105167885D02*
X109603383Y-105453600D01*
X109603383Y-105453600D02*
X110031954Y-105596457D01*
X110031954Y-105596457D02*
X110317668Y-105596457D01*
X110317668Y-105596457D02*
X110746240Y-105453600D01*
X110746240Y-105453600D02*
X110889097Y-105310742D01*
X110889097Y-105310742D02*
X110889097Y-104310742D01*
X110889097Y-104310742D02*
X110317668Y-104310742D01*
X112174811Y-105596457D02*
X112174811Y-102596457D01*
X112174811Y-102596457D02*
X113889097Y-105596457D01*
X113889097Y-105596457D02*
X113889097Y-102596457D01*
X115317668Y-105596457D02*
X115317668Y-102596457D01*
X115317668Y-102596457D02*
X116031954Y-102596457D01*
X116031954Y-102596457D02*
X116460525Y-102739314D01*
X116460525Y-102739314D02*
X116746240Y-103025028D01*
X116746240Y-103025028D02*
X116889097Y-103310742D01*
X116889097Y-103310742D02*
X117031954Y-103882171D01*
X117031954Y-103882171D02*
X117031954Y-104310742D01*
X117031954Y-104310742D02*
X116889097Y-104882171D01*
X116889097Y-104882171D02*
X116746240Y-105167885D01*
X116746240Y-105167885D02*
X116460525Y-105453600D01*
X116460525Y-105453600D02*
X116031954Y-105596457D01*
X116031954Y-105596457D02*
X115317668Y-105596457D01*
X135246240Y-102739314D02*
X134960526Y-102596457D01*
X134960526Y-102596457D02*
X134531954Y-102596457D01*
X134531954Y-102596457D02*
X134103383Y-102739314D01*
X134103383Y-102739314D02*
X133817668Y-103025028D01*
X133817668Y-103025028D02*
X133674811Y-103310742D01*
X133674811Y-103310742D02*
X133531954Y-103882171D01*
X133531954Y-103882171D02*
X133531954Y-104310742D01*
X133531954Y-104310742D02*
X133674811Y-104882171D01*
X133674811Y-104882171D02*
X133817668Y-105167885D01*
X133817668Y-105167885D02*
X134103383Y-105453600D01*
X134103383Y-105453600D02*
X134531954Y-105596457D01*
X134531954Y-105596457D02*
X134817668Y-105596457D01*
X134817668Y-105596457D02*
X135246240Y-105453600D01*
X135246240Y-105453600D02*
X135389097Y-105310742D01*
X135389097Y-105310742D02*
X135389097Y-104310742D01*
X135389097Y-104310742D02*
X134817668Y-104310742D01*
X136674811Y-105596457D02*
X136674811Y-102596457D01*
X136674811Y-102596457D02*
X138389097Y-105596457D01*
X138389097Y-105596457D02*
X138389097Y-102596457D01*
X139817668Y-105596457D02*
X139817668Y-102596457D01*
X139817668Y-102596457D02*
X140531954Y-102596457D01*
X140531954Y-102596457D02*
X140960525Y-102739314D01*
X140960525Y-102739314D02*
X141246240Y-103025028D01*
X141246240Y-103025028D02*
X141389097Y-103310742D01*
X141389097Y-103310742D02*
X141531954Y-103882171D01*
X141531954Y-103882171D02*
X141531954Y-104310742D01*
X141531954Y-104310742D02*
X141389097Y-104882171D01*
X141389097Y-104882171D02*
X141246240Y-105167885D01*
X141246240Y-105167885D02*
X140960525Y-105453600D01*
X140960525Y-105453600D02*
X140531954Y-105596457D01*
X140531954Y-105596457D02*
X139817668Y-105596457D01*
X109746240Y-121596457D02*
X110317668Y-121596457D01*
X110317668Y-121596457D02*
X110603383Y-121739314D01*
X110603383Y-121739314D02*
X110889097Y-122025028D01*
X110889097Y-122025028D02*
X111031954Y-122596457D01*
X111031954Y-122596457D02*
X111031954Y-123596457D01*
X111031954Y-123596457D02*
X110889097Y-124167885D01*
X110889097Y-124167885D02*
X110603383Y-124453600D01*
X110603383Y-124453600D02*
X110317668Y-124596457D01*
X110317668Y-124596457D02*
X109746240Y-124596457D01*
X109746240Y-124596457D02*
X109460526Y-124453600D01*
X109460526Y-124453600D02*
X109174811Y-124167885D01*
X109174811Y-124167885D02*
X109031954Y-123596457D01*
X109031954Y-123596457D02*
X109031954Y-122596457D01*
X109031954Y-122596457D02*
X109174811Y-122025028D01*
X109174811Y-122025028D02*
X109460526Y-121739314D01*
X109460526Y-121739314D02*
X109746240Y-121596457D01*
X112317668Y-121596457D02*
X112317668Y-124025028D01*
X112317668Y-124025028D02*
X112460525Y-124310742D01*
X112460525Y-124310742D02*
X112603383Y-124453600D01*
X112603383Y-124453600D02*
X112889097Y-124596457D01*
X112889097Y-124596457D02*
X113460525Y-124596457D01*
X113460525Y-124596457D02*
X113746240Y-124453600D01*
X113746240Y-124453600D02*
X113889097Y-124310742D01*
X113889097Y-124310742D02*
X114031954Y-124025028D01*
X114031954Y-124025028D02*
X114031954Y-121596457D01*
X115031954Y-121596457D02*
X116746240Y-121596457D01*
X115889097Y-124596457D02*
X115889097Y-121596457D01*
X136174811Y-124596457D02*
X136174811Y-121596457D01*
X137603382Y-124596457D02*
X137603382Y-121596457D01*
X137603382Y-121596457D02*
X139317668Y-124596457D01*
X139317668Y-124596457D02*
X139317668Y-121596457D01*
D12*
%TO.C,R1*%
X124027064Y-140635000D02*
X123572936Y-140635000D01*
X124027064Y-139165000D02*
X123572936Y-139165000D01*
%TO.C,J2*%
X128500000Y-145600000D02*
X128500000Y-141100000D01*
X128500000Y-141100000D02*
X121500000Y-141100000D01*
X127250000Y-155100000D02*
X127250000Y-145600000D01*
X127250000Y-145600000D02*
X128500000Y-145600000D01*
X122750000Y-155100000D02*
X127250000Y-155100000D01*
X122750000Y-145600000D02*
X122750000Y-155100000D01*
X121500000Y-145600000D02*
X122750000Y-145600000D01*
X121500000Y-141100000D02*
X121500000Y-145600000D01*
%TO.C,R2*%
X128127064Y-135935000D02*
X127672936Y-135935000D01*
X128127064Y-134465000D02*
X127672936Y-134465000D01*
D13*
%TO.C,J4*%
X118800000Y-138650000D02*
X118800000Y-126450000D01*
X118800000Y-126450000D02*
X100000000Y-126450000D01*
X100000000Y-138650000D02*
X118800000Y-138650000D01*
X100000000Y-138050000D02*
X85700000Y-138050000D01*
X100000000Y-126450000D02*
X100000000Y-138650000D01*
X85700000Y-138050000D02*
X85700000Y-127050000D01*
X85700000Y-127050000D02*
X100000000Y-127050000D01*
%TO.C,J3*%
X131200000Y-107400000D02*
X131200000Y-119600000D01*
X131200000Y-119600000D02*
X150000000Y-119600000D01*
X150000000Y-107400000D02*
X131200000Y-107400000D01*
X150000000Y-108000000D02*
X164300000Y-108000000D01*
X150000000Y-119600000D02*
X150000000Y-107400000D01*
X164300000Y-108000000D02*
X164300000Y-119000000D01*
X164300000Y-119000000D02*
X150000000Y-119000000D01*
%TO.C,J5*%
X118800000Y-119600000D02*
X118800000Y-107400000D01*
X118800000Y-107400000D02*
X100000000Y-107400000D01*
X100000000Y-119600000D02*
X118800000Y-119600000D01*
X100000000Y-119000000D02*
X85700000Y-119000000D01*
X100000000Y-107400000D02*
X100000000Y-119600000D01*
X85700000Y-119000000D02*
X85700000Y-108000000D01*
X85700000Y-108000000D02*
X100000000Y-108000000D01*
D12*
%TO.C,C4*%
X123640000Y-123711252D02*
X123640000Y-122288748D01*
X126360000Y-123711252D02*
X126360000Y-122288748D01*
%TO.C,C3*%
X127140000Y-123711252D02*
X127140000Y-122288748D01*
X129860000Y-123711252D02*
X129860000Y-122288748D01*
%TO.C,C2*%
X123140000Y-137211252D02*
X123140000Y-135788748D01*
X125860000Y-137211252D02*
X125860000Y-135788748D01*
D13*
%TO.C,Q1*%
X121900000Y-128400000D02*
X128100000Y-128400000D01*
X121900000Y-133600000D02*
X121900000Y-128400000D01*
X128100000Y-128400000D02*
X128100000Y-133600000D01*
X128100000Y-133600000D02*
X121900000Y-133600000D01*
%TO.C,J1*%
X131200000Y-126450000D02*
X131200000Y-138650000D01*
X131200000Y-138650000D02*
X150000000Y-138650000D01*
X150000000Y-126450000D02*
X131200000Y-126450000D01*
X150000000Y-127050000D02*
X164300000Y-127050000D01*
X150000000Y-138650000D02*
X150000000Y-126450000D01*
X164300000Y-127050000D02*
X164300000Y-138050000D01*
X164300000Y-138050000D02*
X150000000Y-138050000D01*
D12*
%TO.C,C1*%
X119840000Y-137211252D02*
X119840000Y-135788748D01*
X122560000Y-137211252D02*
X122560000Y-135788748D01*
%TD*%
M02*
