%TF.GenerationSoftware,KiCad,Pcbnew,7.0.9*%
%TF.CreationDate,2024-01-13T21:21:30+01:00*%
%TF.ProjectId,line_injector,6c696e65-5f69-46e6-9a65-63746f722e6b,rev?*%
%TF.SameCoordinates,Original*%
%TF.FileFunction,Copper,L1,Top*%
%TF.FilePolarity,Positive*%
%FSLAX46Y46*%
G04 Gerber Fmt 4.6, Leading zero omitted, Abs format (unit mm)*
G04 Created by KiCad (PCBNEW 7.0.9) date 2024-01-13 21:21:30*
%MOMM*%
%LPD*%
G01*
G04 APERTURE LIST*
G04 Aperture macros list*
%AMRoundRect*
0 Rectangle with rounded corners*
0 $1 Rounding radius*
0 $2 $3 $4 $5 $6 $7 $8 $9 X,Y pos of 4 corners*
0 Add a 4 corners polygon primitive as box body*
4,1,4,$2,$3,$4,$5,$6,$7,$8,$9,$2,$3,0*
0 Add four circle primitives for the rounded corners*
1,1,$1+$1,$2,$3*
1,1,$1+$1,$4,$5*
1,1,$1+$1,$6,$7*
1,1,$1+$1,$8,$9*
0 Add four rect primitives between the rounded corners*
20,1,$1+$1,$2,$3,$4,$5,0*
20,1,$1+$1,$4,$5,$6,$7,0*
20,1,$1+$1,$6,$7,$8,$9,0*
20,1,$1+$1,$8,$9,$2,$3,0*%
%AMFreePoly0*
4,1,17,-1.530000,2.725000,1.530000,2.725000,1.530000,3.200000,2.280000,3.200000,2.280000,0.000000,2.775000,0.000000,2.775000,-0.905000,2.280000,-0.905000,2.280000,-1.330000,-2.280000,-1.330000,-2.280000,-0.905000,-2.775000,-0.905000,-2.775000,0.000000,-2.280000,0.000000,-2.280000,3.200000,-1.530000,3.200000,-1.530000,2.725000,-1.530000,2.725000,$1*%
G04 Aperture macros list end*
%TA.AperFunction,ComponentPad*%
%ADD10C,5.700000*%
%TD*%
%TA.AperFunction,SMDPad,CuDef*%
%ADD11RoundRect,0.250000X0.262500X0.450000X-0.262500X0.450000X-0.262500X-0.450000X0.262500X-0.450000X0*%
%TD*%
%TA.AperFunction,SMDPad,CuDef*%
%ADD12R,1.000000X0.750000*%
%TD*%
%TA.AperFunction,SMDPad,CuDef*%
%ADD13FreePoly0,270.000000*%
%TD*%
%TA.AperFunction,ComponentPad*%
%ADD14C,2.500000*%
%TD*%
%TA.AperFunction,ComponentPad*%
%ADD15C,4.000000*%
%TD*%
%TA.AperFunction,SMDPad,CuDef*%
%ADD16R,1.200000X4.500000*%
%TD*%
%TA.AperFunction,SMDPad,CuDef*%
%ADD17R,2.000000X4.500000*%
%TD*%
%TA.AperFunction,SMDPad,CuDef*%
%ADD18RoundRect,0.250000X1.100000X-0.325000X1.100000X0.325000X-1.100000X0.325000X-1.100000X-0.325000X0*%
%TD*%
%TA.AperFunction,ViaPad*%
%ADD19C,0.600000*%
%TD*%
%TA.AperFunction,Conductor*%
%ADD20C,0.750000*%
%TD*%
G04 APERTURE END LIST*
D10*
%TO.P,H6,1*%
%TO.N,N/C*%
X146000000Y-123000000D03*
%TD*%
%TO.P,H5,1*%
%TO.N,N/C*%
X146000000Y-142000000D03*
%TD*%
%TO.P,H4,1*%
%TO.N,N/C*%
X146000000Y-104000000D03*
%TD*%
%TO.P,H3,1*%
%TO.N,N/C*%
X104000000Y-142000000D03*
%TD*%
%TO.P,H2,1*%
%TO.N,N/C*%
X104000000Y-123000000D03*
%TD*%
%TO.P,H1,1*%
%TO.N,N/C*%
X104000000Y-104000000D03*
%TD*%
D11*
%TO.P,R2,2*%
%TO.N,Net-(Q1-G)*%
X126987500Y-135200000D03*
%TO.P,R2,1*%
%TO.N,Net-(J1-Pin_1)*%
X128812500Y-135200000D03*
%TD*%
%TO.P,R1,1*%
%TO.N,Net-(J2-In)*%
X124712500Y-139900000D03*
%TO.P,R1,2*%
%TO.N,GND*%
X122887500Y-139900000D03*
%TD*%
D12*
%TO.P,Q1,1,S*%
%TO.N,Net-(J4-Pin_1)*%
X122205000Y-129095000D03*
%TO.P,Q1,2,S*%
X122205000Y-130365000D03*
%TO.P,Q1,3,S*%
X122205000Y-131635000D03*
%TO.P,Q1,4,G*%
%TO.N,Net-(Q1-G)*%
X122205000Y-132905000D03*
D13*
%TO.P,Q1,5,D*%
%TO.N,Net-(J1-Pin_1)*%
X125000000Y-131000000D03*
%TD*%
D14*
%TO.P,J5,1,Pin_1*%
%TO.N,GND*%
X116900000Y-118500000D03*
X116900000Y-108500000D03*
D15*
X113000000Y-113500000D03*
D14*
X106700000Y-118500000D03*
X106700000Y-108500000D03*
%TD*%
%TO.P,J4,1,Pin_1*%
%TO.N,Net-(J4-Pin_1)*%
X116900000Y-137550000D03*
X116900000Y-127550000D03*
D15*
X113000000Y-132550000D03*
D14*
X106700000Y-137550000D03*
X106700000Y-127550000D03*
%TD*%
%TO.P,J3,1,Pin_1*%
%TO.N,GND*%
X133100000Y-108500000D03*
X133100000Y-118500000D03*
D15*
X137000000Y-113500000D03*
D14*
X143300000Y-108500000D03*
X143300000Y-118500000D03*
%TD*%
D16*
%TO.P,J2,1,In*%
%TO.N,Net-(J2-In)*%
X125000000Y-143350000D03*
D17*
%TO.P,J2,2,Ext*%
%TO.N,GND*%
X127500000Y-143350000D03*
X122500000Y-143350000D03*
%TD*%
D14*
%TO.P,J1,1,Pin_1*%
%TO.N,Net-(J1-Pin_1)*%
X133100000Y-127550000D03*
X133100000Y-137550000D03*
D15*
X137000000Y-132550000D03*
D14*
X143300000Y-127550000D03*
X143300000Y-137550000D03*
%TD*%
D18*
%TO.P,C4,1*%
%TO.N,Net-(J1-Pin_1)*%
X125000000Y-124475000D03*
%TO.P,C4,2*%
%TO.N,GND*%
X125000000Y-121525000D03*
%TD*%
%TO.P,C3,2*%
%TO.N,GND*%
X128500000Y-121525000D03*
%TO.P,C3,1*%
%TO.N,Net-(J1-Pin_1)*%
X128500000Y-124475000D03*
%TD*%
%TO.P,C2,1*%
%TO.N,Net-(J2-In)*%
X124500000Y-137975000D03*
%TO.P,C2,2*%
%TO.N,Net-(Q1-G)*%
X124500000Y-135025000D03*
%TD*%
%TO.P,C1,1*%
%TO.N,Net-(J2-In)*%
X121200000Y-137975000D03*
%TO.P,C1,2*%
%TO.N,Net-(Q1-G)*%
X121200000Y-135025000D03*
%TD*%
D19*
%TO.N,Net-(J1-Pin_1)*%
X129500000Y-133500000D03*
X129500000Y-131500000D03*
X129500000Y-129500000D03*
X125500000Y-127500000D03*
X127500000Y-127500000D03*
X129500000Y-127500000D03*
X130500000Y-124500000D03*
X130500000Y-136500000D03*
X130500000Y-134500000D03*
X130500000Y-132500000D03*
X130500000Y-130500000D03*
X130500000Y-128500000D03*
X130500000Y-126500000D03*
X128500000Y-126500000D03*
X126500000Y-126500000D03*
X124500000Y-126500000D03*
X128500000Y-128500000D03*
X128500000Y-130500000D03*
X128500000Y-132500000D03*
X126500000Y-128500000D03*
X124500000Y-128500000D03*
X127500000Y-129500000D03*
X126500000Y-129500000D03*
X125500000Y-129500000D03*
X124500000Y-129500000D03*
X124500000Y-130500000D03*
X125500000Y-130500000D03*
X126500000Y-130500000D03*
X127500000Y-130500000D03*
X127500000Y-131500000D03*
X126500000Y-131500000D03*
X125500000Y-131500000D03*
X124500000Y-131500000D03*
X127500000Y-133500000D03*
X127500000Y-132500000D03*
X126500000Y-132500000D03*
X126500000Y-133500000D03*
X125500000Y-133500000D03*
X125500000Y-132500000D03*
X124500000Y-132500000D03*
X124500000Y-133500000D03*
%TD*%
D20*
%TO.N,Net-(J2-In)*%
X124500000Y-137975000D02*
X121200000Y-137975000D01*
X124712500Y-139900000D02*
X124712500Y-138187500D01*
X124712500Y-138187500D02*
X124500000Y-137975000D01*
X125000000Y-143350000D02*
X125000000Y-140187500D01*
X125000000Y-140187500D02*
X124712500Y-139900000D01*
%TO.N,Net-(J1-Pin_1)*%
X130750000Y-135200000D02*
X133100000Y-137550000D01*
X128812500Y-135200000D02*
X130750000Y-135200000D01*
%TO.N,Net-(Q1-G)*%
X124675000Y-135200000D02*
X124500000Y-135025000D01*
X126987500Y-135200000D02*
X124675000Y-135200000D01*
X122205000Y-135025000D02*
X121200000Y-135025000D01*
X122205000Y-132905000D02*
X122205000Y-135025000D01*
X124500000Y-135025000D02*
X121200000Y-135025000D01*
%TD*%
%TA.AperFunction,Conductor*%
%TO.N,Net-(J4-Pin_1)*%
G36*
X122659191Y-126318907D02*
G01*
X122695155Y-126368407D01*
X122700000Y-126399000D01*
X122700000Y-132101000D01*
X122681093Y-132159191D01*
X122631593Y-132195155D01*
X122601000Y-132200000D01*
X118200000Y-132200000D01*
X118200000Y-132200001D01*
X118200000Y-138701000D01*
X118181093Y-138759191D01*
X118131593Y-138795155D01*
X118101000Y-138800000D01*
X110899000Y-138800000D01*
X110840809Y-138781093D01*
X110804845Y-138731593D01*
X110800000Y-138701000D01*
X110800000Y-126399000D01*
X110818907Y-126340809D01*
X110868407Y-126304845D01*
X110899000Y-126300000D01*
X122601000Y-126300000D01*
X122659191Y-126318907D01*
G37*
%TD.AperFunction*%
%TD*%
%TA.AperFunction,Conductor*%
%TO.N,Net-(J1-Pin_1)*%
G36*
X139959191Y-123918907D02*
G01*
X139995155Y-123968407D01*
X140000000Y-123999000D01*
X140000000Y-126300000D01*
X144501000Y-126300000D01*
X144559191Y-126318907D01*
X144595155Y-126368407D01*
X144600000Y-126399000D01*
X144600000Y-138401000D01*
X144581093Y-138459191D01*
X144531593Y-138495155D01*
X144501000Y-138500000D01*
X142500000Y-138500000D01*
X142500000Y-138500001D01*
X142500000Y-138701000D01*
X142481093Y-138759191D01*
X142431593Y-138795155D01*
X142401000Y-138800000D01*
X129699000Y-138800000D01*
X129640809Y-138781093D01*
X129604845Y-138731593D01*
X129600000Y-138701000D01*
X129600000Y-133900001D01*
X129600000Y-133900000D01*
X129599999Y-133900000D01*
X123499000Y-133900000D01*
X123440809Y-133881093D01*
X123404845Y-133831593D01*
X123400000Y-133801000D01*
X123400000Y-123999000D01*
X123418907Y-123940809D01*
X123468407Y-123904845D01*
X123499000Y-123900000D01*
X139901000Y-123900000D01*
X139959191Y-123918907D01*
G37*
%TD.AperFunction*%
%TD*%
%TA.AperFunction,Conductor*%
%TO.N,GND*%
G36*
X141017183Y-104018907D02*
G01*
X141028996Y-104028996D01*
X142471004Y-105471004D01*
X142498781Y-105525521D01*
X142500000Y-105541008D01*
X142500000Y-107500000D01*
X142500001Y-107500000D01*
X144458992Y-107500000D01*
X144517183Y-107518907D01*
X144528996Y-107528996D01*
X145971004Y-108971004D01*
X145998781Y-109025521D01*
X146000000Y-109041008D01*
X146000000Y-119550500D01*
X145981093Y-119608691D01*
X145931593Y-119644655D01*
X145901000Y-119649500D01*
X145818341Y-119649500D01*
X145457147Y-119688782D01*
X145102339Y-119766881D01*
X145102337Y-119766881D01*
X144758025Y-119882894D01*
X144428300Y-120035441D01*
X144428294Y-120035444D01*
X144116981Y-120222755D01*
X144116976Y-120222758D01*
X143827742Y-120442627D01*
X143563984Y-120692473D01*
X143563974Y-120692483D01*
X143328778Y-120969379D01*
X143328771Y-120969389D01*
X143124886Y-121270094D01*
X142954700Y-121591097D01*
X142820224Y-121928611D01*
X142820220Y-121928622D01*
X142723027Y-122278678D01*
X142664248Y-122637214D01*
X142644579Y-123000000D01*
X142664248Y-123362785D01*
X142723027Y-123721321D01*
X142820220Y-124071377D01*
X142820224Y-124071388D01*
X142954700Y-124408902D01*
X142954702Y-124408905D01*
X143124883Y-124729900D01*
X143328773Y-125030614D01*
X143328777Y-125030619D01*
X143328778Y-125030620D01*
X143563974Y-125307516D01*
X143563984Y-125307526D01*
X143827742Y-125557372D01*
X143905770Y-125616687D01*
X143940653Y-125666954D01*
X143939328Y-125728125D01*
X143902300Y-125776834D01*
X143845858Y-125794500D01*
X140604500Y-125794500D01*
X140546309Y-125775593D01*
X140510345Y-125726093D01*
X140505500Y-125695500D01*
X140505500Y-123999006D01*
X140505499Y-123998994D01*
X140499278Y-123919930D01*
X140494433Y-123889337D01*
X140471257Y-123798533D01*
X140404113Y-123671281D01*
X140368149Y-123621781D01*
X140350518Y-123598917D01*
X140244514Y-123501629D01*
X140244513Y-123501628D01*
X140115398Y-123438148D01*
X140115399Y-123438148D01*
X140057206Y-123419240D01*
X140043417Y-123414976D01*
X140043402Y-123414973D01*
X139901005Y-123394500D01*
X139901000Y-123394500D01*
X123499000Y-123394500D01*
X123419930Y-123400722D01*
X123389337Y-123405567D01*
X123298535Y-123428742D01*
X123298534Y-123428742D01*
X123298533Y-123428743D01*
X123280709Y-123438148D01*
X123171279Y-123495887D01*
X123171278Y-123495888D01*
X123121781Y-123531851D01*
X123098923Y-123549477D01*
X123098917Y-123549482D01*
X123001628Y-123655486D01*
X122938148Y-123784600D01*
X122919240Y-123842794D01*
X122914976Y-123856582D01*
X122914973Y-123856597D01*
X122894500Y-123998994D01*
X122894500Y-125727587D01*
X122875593Y-125785778D01*
X122826093Y-125821742D01*
X122764916Y-125821744D01*
X122757210Y-125819241D01*
X122743417Y-125814976D01*
X122743402Y-125814973D01*
X122601005Y-125794500D01*
X122601000Y-125794500D01*
X110899000Y-125794500D01*
X110819930Y-125800722D01*
X110789337Y-125805567D01*
X110698535Y-125828742D01*
X110698534Y-125828742D01*
X110698533Y-125828743D01*
X110656115Y-125851124D01*
X110571279Y-125895887D01*
X110571278Y-125895888D01*
X110521781Y-125931851D01*
X110498923Y-125949477D01*
X110498917Y-125949482D01*
X110401628Y-126055486D01*
X110338148Y-126184600D01*
X110319240Y-126242794D01*
X110314976Y-126256582D01*
X110314973Y-126256597D01*
X110294500Y-126398994D01*
X110294500Y-126399000D01*
X110294500Y-138701000D01*
X110300722Y-138780070D01*
X110305567Y-138810663D01*
X110328743Y-138901467D01*
X110339806Y-138922433D01*
X110395887Y-139028720D01*
X110395888Y-139028721D01*
X110411711Y-139050499D01*
X110431851Y-139078219D01*
X110449482Y-139101083D01*
X110555486Y-139198371D01*
X110684604Y-139261853D01*
X110724351Y-139274767D01*
X110742794Y-139280760D01*
X110748966Y-139282668D01*
X110756584Y-139285024D01*
X110756594Y-139285025D01*
X110756597Y-139285026D01*
X110898995Y-139305500D01*
X110899000Y-139305500D01*
X118100994Y-139305500D01*
X118101000Y-139305500D01*
X118180070Y-139299278D01*
X118210663Y-139294433D01*
X118301467Y-139271257D01*
X118428719Y-139204113D01*
X118478219Y-139168149D01*
X118501083Y-139150518D01*
X118598371Y-139044514D01*
X118661853Y-138915396D01*
X118680760Y-138857205D01*
X118685024Y-138843416D01*
X118695773Y-138768656D01*
X118705500Y-138701005D01*
X118705500Y-132804500D01*
X118724407Y-132746309D01*
X118773907Y-132710345D01*
X118804500Y-132705500D01*
X121105500Y-132705500D01*
X121163691Y-132724407D01*
X121199655Y-132773907D01*
X121204500Y-132804500D01*
X121204500Y-133327866D01*
X121204501Y-133327870D01*
X121210908Y-133387480D01*
X121210909Y-133387485D01*
X121261203Y-133522330D01*
X121261204Y-133522333D01*
X121309752Y-133587182D01*
X121329490Y-133645096D01*
X121329500Y-133646512D01*
X121329500Y-133850500D01*
X121310593Y-133908691D01*
X121261093Y-133944655D01*
X121230500Y-133949500D01*
X120049983Y-133949500D01*
X119947211Y-133959999D01*
X119947199Y-133960002D01*
X119780663Y-134015187D01*
X119631347Y-134107285D01*
X119507285Y-134231347D01*
X119415187Y-134380663D01*
X119360000Y-134547205D01*
X119349500Y-134649983D01*
X119349500Y-135400016D01*
X119359999Y-135502788D01*
X119360002Y-135502800D01*
X119415187Y-135669336D01*
X119507285Y-135818652D01*
X119507286Y-135818653D01*
X119507288Y-135818656D01*
X119631344Y-135942712D01*
X119780666Y-136034814D01*
X119947203Y-136089999D01*
X120049991Y-136100500D01*
X122350008Y-136100499D01*
X122350016Y-136100499D01*
X122452788Y-136090000D01*
X122452788Y-136089999D01*
X122452797Y-136089999D01*
X122619334Y-136034814D01*
X122768656Y-135942712D01*
X122779998Y-135931369D01*
X122834513Y-135903594D01*
X122894945Y-135913165D01*
X122920000Y-135931368D01*
X122931344Y-135942712D01*
X123080666Y-136034814D01*
X123247203Y-136089999D01*
X123349991Y-136100500D01*
X125650008Y-136100499D01*
X125650016Y-136100499D01*
X125752788Y-136090000D01*
X125752788Y-136089999D01*
X125752797Y-136089999D01*
X125781388Y-136080524D01*
X125812527Y-136075500D01*
X126050416Y-136075500D01*
X126108607Y-136094407D01*
X126127665Y-136114965D01*
X126128715Y-136114136D01*
X126132285Y-136118652D01*
X126132288Y-136118656D01*
X126256344Y-136242712D01*
X126405666Y-136334814D01*
X126572203Y-136389999D01*
X126674991Y-136400500D01*
X127300008Y-136400499D01*
X127300016Y-136400499D01*
X127402788Y-136390000D01*
X127402788Y-136389999D01*
X127402797Y-136389999D01*
X127569334Y-136334814D01*
X127718656Y-136242712D01*
X127829998Y-136131369D01*
X127884513Y-136103594D01*
X127944945Y-136113165D01*
X127970000Y-136131368D01*
X128081344Y-136242712D01*
X128230666Y-136334814D01*
X128397203Y-136389999D01*
X128499991Y-136400500D01*
X128995499Y-136400499D01*
X129053690Y-136419406D01*
X129089654Y-136468906D01*
X129094499Y-136499499D01*
X129094500Y-138700995D01*
X129094500Y-138701000D01*
X129100722Y-138780070D01*
X129105567Y-138810663D01*
X129128743Y-138901467D01*
X129139806Y-138922433D01*
X129195887Y-139028720D01*
X129195888Y-139028721D01*
X129211711Y-139050499D01*
X129231851Y-139078219D01*
X129249482Y-139101083D01*
X129355486Y-139198371D01*
X129484604Y-139261853D01*
X129524351Y-139274767D01*
X129542794Y-139280760D01*
X129548966Y-139282668D01*
X129556584Y-139285024D01*
X129556594Y-139285025D01*
X129556597Y-139285026D01*
X129698995Y-139305500D01*
X142401000Y-139305500D01*
X142459191Y-139324407D01*
X142495155Y-139373907D01*
X142500000Y-139404500D01*
X142500000Y-140458992D01*
X142481093Y-140517183D01*
X142471004Y-140528996D01*
X141028996Y-141971004D01*
X140974479Y-141998781D01*
X140958992Y-142000000D01*
X126199499Y-142000000D01*
X126141308Y-141981093D01*
X126105344Y-141931593D01*
X126100499Y-141901000D01*
X126100499Y-141052133D01*
X126100499Y-141052128D01*
X126094091Y-140992517D01*
X126060069Y-140901299D01*
X126043797Y-140857670D01*
X125957549Y-140742458D01*
X125957548Y-140742457D01*
X125957546Y-140742454D01*
X125957542Y-140742451D01*
X125957540Y-140742449D01*
X125915170Y-140710730D01*
X125879918Y-140660721D01*
X125875500Y-140631478D01*
X125875500Y-140225084D01*
X125875662Y-140221084D01*
X125880339Y-140163652D01*
X125869085Y-140081058D01*
X125860073Y-139998184D01*
X125859253Y-139995752D01*
X125854977Y-139977506D01*
X125854631Y-139974963D01*
X125825885Y-139896720D01*
X125799267Y-139817720D01*
X125797941Y-139815516D01*
X125789847Y-139798626D01*
X125789755Y-139798377D01*
X125788960Y-139796212D01*
X125744068Y-139725978D01*
X125741975Y-139722499D01*
X125739667Y-139718662D01*
X125725499Y-139667628D01*
X125725499Y-139399983D01*
X125715000Y-139297211D01*
X125714999Y-139297209D01*
X125714999Y-139297203D01*
X125672597Y-139169245D01*
X125672242Y-139108062D01*
X125707917Y-139058353D01*
X125747900Y-139042949D01*
X125747511Y-139041130D01*
X125752784Y-139040000D01*
X125752797Y-139039999D01*
X125919334Y-138984814D01*
X126068656Y-138892712D01*
X126192712Y-138768656D01*
X126284814Y-138619334D01*
X126339999Y-138452797D01*
X126350500Y-138350009D01*
X126350499Y-137599992D01*
X126350499Y-137599991D01*
X126350499Y-137599983D01*
X126340000Y-137497211D01*
X126339999Y-137497209D01*
X126339999Y-137497203D01*
X126284814Y-137330666D01*
X126192712Y-137181344D01*
X126068656Y-137057288D01*
X126068653Y-137057286D01*
X126068652Y-137057285D01*
X125919336Y-136965187D01*
X125919335Y-136965186D01*
X125919334Y-136965186D01*
X125752797Y-136910001D01*
X125752794Y-136910000D01*
X125650016Y-136899500D01*
X123349983Y-136899500D01*
X123247211Y-136909999D01*
X123247199Y-136910002D01*
X123080663Y-136965187D01*
X122931345Y-137057286D01*
X122920001Y-137068630D01*
X122865484Y-137096406D01*
X122805052Y-137086832D01*
X122779999Y-137068630D01*
X122768657Y-137057289D01*
X122768654Y-137057286D01*
X122619336Y-136965187D01*
X122619335Y-136965186D01*
X122619334Y-136965186D01*
X122452797Y-136910001D01*
X122452794Y-136910000D01*
X122350016Y-136899500D01*
X120049983Y-136899500D01*
X119947211Y-136909999D01*
X119947199Y-136910002D01*
X119780663Y-136965187D01*
X119631347Y-137057285D01*
X119507285Y-137181347D01*
X119415187Y-137330663D01*
X119360000Y-137497205D01*
X119349500Y-137599983D01*
X119349500Y-138350016D01*
X119359999Y-138452788D01*
X119360002Y-138452800D01*
X119415187Y-138619336D01*
X119507285Y-138768652D01*
X119507286Y-138768653D01*
X119507288Y-138768656D01*
X119631344Y-138892712D01*
X119780666Y-138984814D01*
X119947203Y-139039999D01*
X120049991Y-139050500D01*
X122350008Y-139050499D01*
X122350016Y-139050499D01*
X122452788Y-139040000D01*
X122452788Y-139039999D01*
X122452797Y-139039999D01*
X122619334Y-138984814D01*
X122768656Y-138892712D01*
X122779998Y-138881369D01*
X122834513Y-138853594D01*
X122894945Y-138863165D01*
X122920000Y-138881368D01*
X122931344Y-138892712D01*
X123080666Y-138984814D01*
X123247203Y-139039999D01*
X123349991Y-139050500D01*
X123654652Y-139050499D01*
X123712841Y-139069406D01*
X123748805Y-139118906D01*
X123748806Y-139180091D01*
X123748626Y-139180639D01*
X123710000Y-139297205D01*
X123699500Y-139399983D01*
X123699500Y-140400016D01*
X123709999Y-140502788D01*
X123710002Y-140502800D01*
X123765187Y-140669336D01*
X123857285Y-140818652D01*
X123857286Y-140818653D01*
X123857288Y-140818656D01*
X123894944Y-140856312D01*
X123922720Y-140910827D01*
X123917698Y-140960909D01*
X123905909Y-140992515D01*
X123905908Y-140992522D01*
X123899500Y-141052129D01*
X123899500Y-141901000D01*
X123880593Y-141959191D01*
X123831093Y-141995155D01*
X123800500Y-142000000D01*
X109041008Y-142000000D01*
X108982817Y-141981093D01*
X108971004Y-141971004D01*
X107528996Y-140528996D01*
X107501219Y-140474479D01*
X107500000Y-140458992D01*
X107500000Y-139169854D01*
X107518907Y-139111663D01*
X107556045Y-139080657D01*
X107577704Y-139070228D01*
X107794479Y-138922433D01*
X107986805Y-138743981D01*
X108150386Y-138538857D01*
X108281568Y-138311643D01*
X108377420Y-138067416D01*
X108435802Y-137811630D01*
X108455408Y-137550000D01*
X108435802Y-137288370D01*
X108377420Y-137032584D01*
X108377419Y-137032583D01*
X108377419Y-137032580D01*
X108281570Y-136788363D01*
X108281568Y-136788357D01*
X108281563Y-136788348D01*
X108281561Y-136788344D01*
X108150389Y-136561148D01*
X108150388Y-136561147D01*
X108150386Y-136561143D01*
X108101227Y-136499499D01*
X107986814Y-136356029D01*
X107986803Y-136356017D01*
X107794485Y-136177572D01*
X107794482Y-136177570D01*
X107794479Y-136177567D01*
X107577704Y-136029772D01*
X107577696Y-136029768D01*
X107341325Y-135915937D01*
X107090619Y-135838605D01*
X107090616Y-135838604D01*
X107090615Y-135838604D01*
X107090610Y-135838603D01*
X107090609Y-135838603D01*
X106831185Y-135799500D01*
X106831182Y-135799500D01*
X106568818Y-135799500D01*
X106568814Y-135799500D01*
X106309390Y-135838603D01*
X106309380Y-135838605D01*
X106058674Y-135915937D01*
X105822303Y-136029768D01*
X105822299Y-136029770D01*
X105822296Y-136029772D01*
X105605521Y-136177567D01*
X105605514Y-136177572D01*
X105413196Y-136356017D01*
X105413185Y-136356029D01*
X105249620Y-136561134D01*
X105249610Y-136561148D01*
X105118438Y-136788344D01*
X105118429Y-136788363D01*
X105022580Y-137032580D01*
X104964198Y-137288368D01*
X104964197Y-137288374D01*
X104944592Y-137549997D01*
X104944592Y-137550002D01*
X104956618Y-137710489D01*
X104942112Y-137769930D01*
X104895438Y-137809492D01*
X104834424Y-137814064D01*
X104787891Y-137787891D01*
X104028996Y-137028996D01*
X104001219Y-136974479D01*
X104000000Y-136958992D01*
X104000000Y-126449500D01*
X104018907Y-126391309D01*
X104068407Y-126355345D01*
X104099000Y-126350500D01*
X104181659Y-126350500D01*
X104542847Y-126311218D01*
X104897661Y-126233118D01*
X104897662Y-126233118D01*
X104897664Y-126233117D01*
X104897670Y-126233116D01*
X105241969Y-126117108D01*
X105562829Y-125968662D01*
X105623578Y-125961389D01*
X105677003Y-125991213D01*
X105702694Y-126046744D01*
X105690839Y-126106769D01*
X105660166Y-126140310D01*
X105605516Y-126177570D01*
X105413196Y-126356017D01*
X105413185Y-126356029D01*
X105249620Y-126561134D01*
X105249610Y-126561148D01*
X105118438Y-126788344D01*
X105118429Y-126788363D01*
X105022580Y-127032580D01*
X104964198Y-127288368D01*
X104964197Y-127288374D01*
X104944592Y-127549997D01*
X104944592Y-127550002D01*
X104964197Y-127811625D01*
X104964198Y-127811631D01*
X105022580Y-128067419D01*
X105118429Y-128311636D01*
X105118438Y-128311655D01*
X105249610Y-128538851D01*
X105249620Y-128538865D01*
X105413185Y-128743970D01*
X105413196Y-128743982D01*
X105605514Y-128922427D01*
X105605516Y-128922428D01*
X105605521Y-128922433D01*
X105822296Y-129070228D01*
X105929810Y-129122004D01*
X106058674Y-129184062D01*
X106058676Y-129184062D01*
X106058677Y-129184063D01*
X106309385Y-129261396D01*
X106568818Y-129300500D01*
X106568823Y-129300500D01*
X106831177Y-129300500D01*
X106831182Y-129300500D01*
X107090615Y-129261396D01*
X107341323Y-129184063D01*
X107577704Y-129070228D01*
X107794479Y-128922433D01*
X107986805Y-128743981D01*
X108150386Y-128538857D01*
X108281568Y-128311643D01*
X108377420Y-128067416D01*
X108435802Y-127811630D01*
X108455408Y-127550000D01*
X108435802Y-127288370D01*
X108377420Y-127032584D01*
X108377419Y-127032583D01*
X108377419Y-127032580D01*
X108281570Y-126788363D01*
X108281568Y-126788357D01*
X108281563Y-126788348D01*
X108281561Y-126788344D01*
X108150389Y-126561148D01*
X108150388Y-126561147D01*
X108150386Y-126561143D01*
X108036957Y-126418907D01*
X107986814Y-126356029D01*
X107986803Y-126356017D01*
X107794485Y-126177572D01*
X107794482Y-126177570D01*
X107794479Y-126177567D01*
X107577704Y-126029772D01*
X107577696Y-126029768D01*
X107341325Y-125915937D01*
X107090619Y-125838605D01*
X107090616Y-125838604D01*
X107090615Y-125838604D01*
X107090610Y-125838603D01*
X107090609Y-125838603D01*
X106831185Y-125799500D01*
X106831182Y-125799500D01*
X106568818Y-125799500D01*
X106568814Y-125799500D01*
X106309390Y-125838603D01*
X106309380Y-125838605D01*
X106058674Y-125915938D01*
X105943755Y-125971279D01*
X105883123Y-125979492D01*
X105829244Y-125950497D01*
X105802697Y-125895371D01*
X105813623Y-125835169D01*
X105849761Y-125797255D01*
X105883019Y-125777245D01*
X106172254Y-125557375D01*
X106436021Y-125307521D01*
X106671227Y-125030614D01*
X106875117Y-124729900D01*
X107045298Y-124408905D01*
X107179775Y-124071391D01*
X107230322Y-123889337D01*
X107276972Y-123721321D01*
X107335751Y-123362785D01*
X107355421Y-123000000D01*
X107335751Y-122637215D01*
X107276973Y-122278684D01*
X107276972Y-122278683D01*
X107276972Y-122278678D01*
X107179779Y-121928622D01*
X107179777Y-121928617D01*
X107179775Y-121928609D01*
X107045298Y-121591095D01*
X106875117Y-121270100D01*
X106671227Y-120969386D01*
X106651815Y-120946533D01*
X106436025Y-120692483D01*
X106436015Y-120692473D01*
X106172257Y-120442627D01*
X105883023Y-120222758D01*
X105883022Y-120222757D01*
X105883019Y-120222755D01*
X105571708Y-120035445D01*
X105458468Y-119983054D01*
X105241974Y-119882894D01*
X105241971Y-119882893D01*
X105241969Y-119882892D01*
X104897670Y-119766884D01*
X104897669Y-119766883D01*
X104897661Y-119766881D01*
X104542851Y-119688782D01*
X104542852Y-119688782D01*
X104181659Y-119649500D01*
X104099000Y-119649500D01*
X104040809Y-119630593D01*
X104004845Y-119581093D01*
X104000000Y-119550500D01*
X104000000Y-109041008D01*
X104018907Y-108982817D01*
X104028996Y-108971004D01*
X105471004Y-107528996D01*
X105525521Y-107501219D01*
X105541008Y-107500000D01*
X107499999Y-107500000D01*
X107500000Y-107500000D01*
X107500000Y-105541008D01*
X107518907Y-105482817D01*
X107528996Y-105471004D01*
X108971004Y-104028996D01*
X109025521Y-104001219D01*
X109041008Y-104000000D01*
X140958992Y-104000000D01*
X141017183Y-104018907D01*
G37*
%TD.AperFunction*%
%TD*%
M02*
