%TF.GenerationSoftware,KiCad,Pcbnew,7.0.9*%
%TF.CreationDate,2024-01-13T21:21:30+01:00*%
%TF.ProjectId,line_injector,6c696e65-5f69-46e6-9a65-63746f722e6b,rev?*%
%TF.SameCoordinates,Original*%
%TF.FileFunction,Copper,L2,Bot*%
%TF.FilePolarity,Positive*%
%FSLAX46Y46*%
G04 Gerber Fmt 4.6, Leading zero omitted, Abs format (unit mm)*
G04 Created by KiCad (PCBNEW 7.0.9) date 2024-01-13 21:21:30*
%MOMM*%
%LPD*%
G01*
G04 APERTURE LIST*
%TA.AperFunction,ComponentPad*%
%ADD10C,5.700000*%
%TD*%
%TA.AperFunction,ComponentPad*%
%ADD11C,2.500000*%
%TD*%
%TA.AperFunction,ComponentPad*%
%ADD12C,4.000000*%
%TD*%
%TA.AperFunction,SMDPad,CuDef*%
%ADD13R,2.000000X4.500000*%
%TD*%
%TA.AperFunction,ViaPad*%
%ADD14C,0.600000*%
%TD*%
G04 APERTURE END LIST*
D10*
%TO.P,H6,1*%
%TO.N,N/C*%
X146000000Y-123000000D03*
%TD*%
%TO.P,H5,1*%
%TO.N,N/C*%
X146000000Y-142000000D03*
%TD*%
%TO.P,H4,1*%
%TO.N,N/C*%
X146000000Y-104000000D03*
%TD*%
%TO.P,H3,1*%
%TO.N,N/C*%
X104000000Y-142000000D03*
%TD*%
%TO.P,H2,1*%
%TO.N,N/C*%
X104000000Y-123000000D03*
%TD*%
%TO.P,H1,1*%
%TO.N,N/C*%
X104000000Y-104000000D03*
%TD*%
D11*
%TO.P,J5,1,Pin_1*%
%TO.N,GND*%
X116900000Y-118500000D03*
X116900000Y-108500000D03*
D12*
X113000000Y-113500000D03*
D11*
X106700000Y-118500000D03*
X106700000Y-108500000D03*
%TD*%
%TO.P,J4,1,Pin_1*%
%TO.N,Net-(J4-Pin_1)*%
X116900000Y-137550000D03*
X116900000Y-127550000D03*
D12*
X113000000Y-132550000D03*
D11*
X106700000Y-137550000D03*
X106700000Y-127550000D03*
%TD*%
%TO.P,J3,1,Pin_1*%
%TO.N,GND*%
X133100000Y-108500000D03*
X133100000Y-118500000D03*
D12*
X137000000Y-113500000D03*
D11*
X143300000Y-108500000D03*
X143300000Y-118500000D03*
%TD*%
D13*
%TO.P,J2,2,Ext*%
%TO.N,GND*%
X127500000Y-143350000D03*
X122500000Y-143350000D03*
%TD*%
D11*
%TO.P,J1,1,Pin_1*%
%TO.N,Net-(J1-Pin_1)*%
X133100000Y-127550000D03*
X133100000Y-137550000D03*
D12*
X137000000Y-132550000D03*
D11*
X143300000Y-127550000D03*
X143300000Y-137550000D03*
%TD*%
D14*
%TO.N,Net-(J1-Pin_1)*%
X129500000Y-133500000D03*
X129500000Y-131500000D03*
X129500000Y-129500000D03*
X125500000Y-127500000D03*
X127500000Y-127500000D03*
X129500000Y-127500000D03*
X130500000Y-124500000D03*
X130500000Y-136500000D03*
X130500000Y-134500000D03*
X130500000Y-132500000D03*
X130500000Y-130500000D03*
X130500000Y-128500000D03*
X130500000Y-126500000D03*
X128500000Y-126500000D03*
X126500000Y-126500000D03*
X124500000Y-126500000D03*
X128500000Y-128500000D03*
X128500000Y-130500000D03*
X128500000Y-132500000D03*
X126500000Y-128500000D03*
X124500000Y-128500000D03*
X127500000Y-129500000D03*
X126500000Y-129500000D03*
X125500000Y-129500000D03*
X124500000Y-129500000D03*
X124500000Y-130500000D03*
X125500000Y-130500000D03*
X126500000Y-130500000D03*
X127500000Y-130500000D03*
X127500000Y-131500000D03*
X126500000Y-131500000D03*
X125500000Y-131500000D03*
X124500000Y-131500000D03*
X127500000Y-133500000D03*
X127500000Y-132500000D03*
X126500000Y-132500000D03*
X126500000Y-133500000D03*
X125500000Y-133500000D03*
X125500000Y-132500000D03*
X124500000Y-132500000D03*
X124500000Y-133500000D03*
%TD*%
%TA.AperFunction,Conductor*%
%TO.N,Net-(J1-Pin_1)*%
G36*
X131159191Y-107918907D02*
G01*
X131195155Y-107968407D01*
X131200000Y-107999000D01*
X131200000Y-138601000D01*
X131181093Y-138659191D01*
X131131593Y-138695155D01*
X131101000Y-138700000D01*
X123599000Y-138700000D01*
X123540809Y-138681093D01*
X123504845Y-138631593D01*
X123500000Y-138601000D01*
X123500000Y-125800001D01*
X123500000Y-125800000D01*
X123499999Y-125800000D01*
X118899000Y-125800000D01*
X118840809Y-125781093D01*
X118804845Y-125731593D01*
X118800000Y-125701000D01*
X118800000Y-107999000D01*
X118818907Y-107940809D01*
X118868407Y-107904845D01*
X118899000Y-107900000D01*
X131101000Y-107900000D01*
X131159191Y-107918907D01*
G37*
%TD.AperFunction*%
%TD*%
M02*
