M48
; DRILL file {KiCad 7.0.9} date Sat Jan 13 21:21:33 2024
; FORMAT={-:-/ absolute / metric / decimal}
; #@! TF.CreationDate,2024-01-13T21:21:33+01:00
; #@! TF.GenerationSoftware,Kicad,Pcbnew,7.0.9
; #@! TF.FileFunction,MixedPlating,1,2
FMAT,2
METRIC
; #@! TA.AperFunction,Plated,PTH,ViaDrill
T1C0.250
; #@! TA.AperFunction,Plated,PTH,ComponentDrill
T2C1.300
; #@! TA.AperFunction,Plated,PTH,ComponentDrill
T3C2.050
; #@! TA.AperFunction,Plated,PTH,ComponentDrill
T4C3.200
%
G90
G05
T1
X124.5Y-126.5
X124.5Y-128.5
X124.5Y-129.5
X124.5Y-130.5
X124.5Y-131.5
X124.5Y-132.5
X124.5Y-133.5
X125.5Y-127.5
X125.5Y-129.5
X125.5Y-130.5
X125.5Y-131.5
X125.5Y-132.5
X125.5Y-133.5
X126.5Y-126.5
X126.5Y-128.5
X126.5Y-129.5
X126.5Y-130.5
X126.5Y-131.5
X126.5Y-132.5
X126.5Y-133.5
X127.5Y-127.5
X127.5Y-129.5
X127.5Y-130.5
X127.5Y-131.5
X127.5Y-132.5
X127.5Y-133.5
X128.5Y-126.5
X128.5Y-128.5
X128.5Y-130.5
X128.5Y-132.5
X129.5Y-127.5
X129.5Y-129.5
X129.5Y-131.5
X129.5Y-133.5
X130.5Y-124.5
X130.5Y-126.5
X130.5Y-128.5
X130.5Y-130.5
X130.5Y-132.5
X130.5Y-134.5
X130.5Y-136.5
T2
X106.7Y-108.5
X106.7Y-118.5
X106.7Y-127.55
X106.7Y-137.55
X116.9Y-108.5
X116.9Y-118.5
X116.9Y-127.55
X116.9Y-137.55
X133.1Y-108.5
X133.1Y-118.5
X133.1Y-127.55
X133.1Y-137.55
X143.3Y-108.5
X143.3Y-118.5
X143.3Y-127.55
X143.3Y-137.55
T3
X113.0Y-113.5
X113.0Y-132.55
X137.0Y-113.5
X137.0Y-132.55
T4
X104.0Y-104.0
X104.0Y-123.0
X104.0Y-142.0
X146.0Y-104.0
X146.0Y-123.0
X146.0Y-142.0
T0
M30
